<?xml version="1.0" encoding="UTF-8" standalone="no"?>
<svg height="100%" stroke-miterlimit="10" style="fill-rule:nonzero;clip-rule:evenodd;stroke-linecap:round;stroke-linejoin:round;" version="1.1" viewBox="0 0 800 600" width="100%" xml:space="preserve" xmlns="http://www.w3.org/2000/svg" xmlns:vectornator="http://vectornator.io" xmlns:xlink="http://www.w3.org/1999/xlink">
<defs/>
<g id="cat">
<path d="M337.228 64.7727C335.911 65.1601 334.477 65.78 333.238 66.458C331.998 67.1361 330.952 67.8722 330.409 68.4921C329.867 69.112 329.17 69.6932 328.492 70.1194C327.814 70.5456 327.155 70.8168 326.69 70.8168C325.683 70.8168 320.104 75.931 314.002 82.072C307.9 88.213 301.275 95.3807 298.175 99.4876C293.449 105.764 288.451 112.467 284.383 118.007C280.315 123.548 277.177 127.926 276.17 129.553C275.007 131.335 274.387 132.227 272.45 132.42C270.513 132.614 267.259 132.11 260.828 131.103C256.643 130.561 252.072 130.212 247.442 130.076C242.812 129.941 238.124 130.018 233.708 130.328C221.853 131.258 216.08 131.762 213.039 131.607C209.997 131.452 209.687 130.638 208.758 128.933C200.622 113.823 192.757 101.154 185.376 91.1769C177.996 81.2003 171.1 73.9163 164.901 69.577C161.724 67.3298 156.997 65.935 152.096 65.5088C147.195 65.0826 142.12 65.625 138.246 67.2523C134.139 68.8796 130.304 71.6304 126.875 75.3111C123.446 78.9918 120.424 83.6024 117.945 88.9491C114.923 95.5357 112.637 101.696 109.828 112.389C107.019 123.083 103.688 138.309 98.5735 163.028C97.4887 168.142 95.5128 175.775 93.2658 183.64C91.0187 191.505 88.5004 199.603 86.3308 205.647C80.7519 221.222 77.3425 232.264 75.3086 242.706C73.2746 253.148 72.6159 262.989 72.5385 276.162C72.461 286.158 72.5385 292.241 72.9646 296.561C73.3908 300.88 74.1657 303.438 75.4829 306.382C79.2797 315.138 85.3623 324.824 91.5611 332.728C97.7599 340.632 104.075 346.754 108.337 348.381C109.809 348.923 110.7 349.543 111.223 350.648C111.746 351.752 111.901 353.34 111.901 355.82C111.901 357.525 112.172 359.927 112.598 362.406C113.024 364.886 113.606 367.443 114.226 369.458C114.845 371.473 115.62 373.952 116.356 376.296C117.092 378.64 117.79 380.849 118.255 382.321C119.262 385.498 122.206 390.186 126.023 395.049C129.839 399.911 134.527 404.948 139.021 408.822C140.725 410.294 142.353 411.728 143.573 412.871C144.793 414.014 145.607 414.866 145.685 415.176C145.839 415.564 146.111 415.874 146.44 416.087C146.769 416.3 147.157 416.416 147.544 416.416C147.854 416.416 149.326 417.191 151.438 418.45C153.549 419.709 156.3 421.453 159.167 423.39C162.034 425.327 165.443 427.458 168.64 429.318C171.836 431.178 174.819 432.766 176.834 433.618C178.771 434.471 181.173 435.556 183.459 436.582C185.744 437.609 187.914 438.578 189.386 439.198C202.326 445.164 219.295 450.743 237.621 455.296C255.946 459.848 275.627 463.374 293.991 465.234C318.012 467.713 339.979 468.295 361.888 466.9C383.797 465.505 405.647 462.134 429.435 456.71C432.38 456.013 434.511 455.741 437.358 456.129C440.206 456.516 443.77 457.562 449.582 459.5C461.437 463.529 469.999 465.931 479.123 467.326C488.247 468.721 497.932 469.108 512.035 469.108C520.636 469.108 528.152 468.915 534.505 468.508C540.859 468.101 546.051 467.481 550.002 466.629C565.422 463.529 581.926 458.725 597.462 452.971C612.998 447.218 627.565 440.515 639.11 433.618C644.767 430.209 648.835 427.536 653.368 424.068C657.901 420.6 662.898 416.339 670.415 409.752C672.274 408.202 674.056 406.769 675.451 405.723C676.846 404.676 677.853 404.018 678.163 404.018C678.395 404.018 678.628 405.141 678.802 406.982C678.977 408.822 679.093 411.379 679.093 414.246C679.093 420.523 678.086 425.986 675.955 430.945C673.824 435.904 670.569 440.36 666.075 444.622C661.814 448.651 658.056 451.247 652.767 453.049C647.479 454.85 640.66 455.858 630.277 456.71C615.71 457.95 603.777 459.345 594.673 460.836C585.568 462.328 579.292 463.917 576.038 465.544C572.241 467.559 568.56 470.464 565.17 474.106C561.78 477.748 558.681 482.126 556.046 487.086C554.264 490.418 553.257 492.781 552.695 495.939C552.133 499.096 552.017 503.048 552.017 509.557C552.017 516.841 552.056 520.638 552.773 523.641C553.489 526.644 554.884 528.852 557.596 532.959C562.555 540.475 568.948 546.132 577.723 550.355C586.498 554.578 597.656 557.368 612.146 559.15C618.422 559.925 622.955 560.312 626.984 560.332C631.013 560.351 634.539 560.002 638.801 559.305C641.822 558.763 645.271 558.298 648.428 557.968C651.586 557.639 654.453 557.445 656.312 557.445C658.094 557.368 660.148 557.097 662.027 556.69C663.906 556.283 665.61 555.741 666.695 555.121C667.78 554.501 669.136 553.958 670.453 553.552C671.771 553.145 673.049 552.873 673.979 552.796C675.606 552.796 681.999 549.813 688.101 546.539C694.202 543.265 700.014 539.7 700.479 538.538C700.634 538.228 700.944 537.918 701.312 537.686C701.68 537.453 702.106 537.298 702.493 537.298C703.578 537.298 709.273 533.153 715.472 528.174C721.671 523.195 728.373 517.384 731.473 514.052C735.115 510.1 738.834 505.179 742.146 500.026C745.459 494.873 748.365 489.488 750.379 484.606C751.309 482.281 752.316 479.802 753.188 477.69C754.06 475.579 754.796 473.835 755.183 472.983C755.571 472.13 756.191 470.116 756.888 467.578C757.585 465.04 758.36 461.979 759.058 459.035C760.685 452.371 761.576 438.423 761.692 424.397C761.808 410.372 761.15 396.269 759.678 389.295C758.67 384.568 756.346 377.943 753.711 371.763C751.077 365.583 748.132 359.849 745.885 356.905C742.786 352.953 736.199 345.94 729.555 339.295C722.911 332.651 716.208 326.374 712.876 323.895L709.157 321.183L705.438 318.47L705.438 310.877L705.438 303.283C705.438 295.689 704.508 286.274 702.997 277.111C701.486 267.948 699.394 259.037 697.069 252.45C696.45 250.668 695.868 248.924 695.442 247.568C695.016 246.212 694.745 245.244 694.745 245.011C694.9 244.081 692.382 237.456 689.495 230.579C686.609 223.702 683.355 216.573 682.037 214.636C681.185 213.551 680.449 212.466 679.926 211.594C679.403 210.722 679.093 210.064 679.093 209.831C679.093 208.747 675.684 203.594 671.499 197.937C667.315 192.28 662.356 186.12 659.257 183.02C653.833 177.674 645.387 170.545 637.909 164.752C630.432 158.96 623.923 154.504 622.374 154.504C622.141 154.504 621.444 154.195 620.533 153.691C619.623 153.187 618.499 152.49 617.415 151.715C612.92 148.615 604.901 144.973 595.234 141.467C585.568 137.961 574.255 134.59 563.175 132.033C556.666 130.483 543.842 129.824 530.98 129.96C518.117 130.096 505.216 131.025 498.552 132.653C488.247 135.287 481.389 137.07 475.5 138.736C469.612 140.402 464.691 141.951 458.26 144.121C454.463 145.361 450.201 146.872 446.405 148.267C442.608 149.661 439.276 150.94 437.339 151.715C435.402 152.567 433.155 153.575 431.063 154.504C428.971 155.434 427.033 156.287 425.716 156.829C424.476 157.294 422.384 158.185 420.04 159.193C417.696 160.2 415.101 161.323 412.854 162.253C410.452 163.338 408.282 164.113 406.616 164.501C404.95 164.888 403.788 164.888 403.4 164.423C403.09 164.036 402.548 162.37 401.948 160.006C401.347 157.643 400.688 154.582 400.146 151.405C398.519 141.564 397.473 135.675 396.407 130.677C395.342 125.679 394.257 121.572 392.552 115.295C391.158 110.026 389.104 104.292 386.586 98.3834C384.068 92.4749 381.085 86.392 377.83 80.4254C373.879 73.4514 367.757 68.3759 360.609 65.625C353.461 62.8742 345.286 62.448 337.228 64.7727ZM535.59 158.999C535.823 159.386 535.668 159.812 535.203 160.219C534.738 160.626 533.963 161.014 532.956 161.323C530.709 161.943 524.045 162.253 518.098 162.253C512.151 162.253 506.921 161.943 507.541 161.323C509.013 159.851 515.638 158.611 522.088 158.069C528.539 157.527 534.815 157.682 535.59 158.999ZM588.59 168.762C591.922 170.312 593.704 171.203 594.227 171.765C594.75 172.327 594.014 172.559 592.309 172.792C591.302 172.947 589.752 172.908 588.067 172.734C586.382 172.559 584.561 172.249 583.011 171.862C581.539 171.397 579.369 170.855 577.045 170.37C574.72 169.886 572.241 169.46 570.149 169.227C564.647 168.375 562.051 167.406 562.245 166.651C562.439 165.895 565.422 165.353 571.078 165.353C574.565 165.353 577.626 165.624 580.474 166.186C583.321 166.748 585.956 167.6 588.59 168.762ZM659.877 203.322C660.574 204.562 661.31 206.538 661.949 208.727C662.589 210.916 663.131 213.318 663.441 215.411C664.061 218.975 664.332 220.796 664.119 221.416C663.906 222.036 663.208 221.455 661.891 220.215C661.039 219.44 660.303 218.549 659.78 217.735C659.257 216.922 658.947 216.185 658.947 215.72C658.947 215.178 658.676 214.481 658.23 213.783C657.784 213.086 657.165 212.388 656.467 211.846C655.46 210.916 652.205 205.066 649.203 199.157C646.2 193.249 643.45 187.282 643.45 186.12C643.45 185.035 647.014 188.251 650.849 192.28C654.685 196.31 658.792 201.153 659.877 203.322ZM541.944 189.374C544.191 190.382 545.276 190.885 544.559 191.157C543.842 191.428 541.324 191.467 536.365 191.544C533.498 191.622 530.36 191.544 527.57 191.37C524.781 191.195 522.34 190.924 520.868 190.614C518.698 190.227 517.536 189.956 517.226 189.646C516.916 189.336 517.459 188.987 518.698 188.445C521.178 187.515 525.75 187.166 530.321 187.34C534.893 187.515 539.464 188.212 541.944 189.374ZM615.555 200.223C618.964 202.005 623.536 205.492 627.081 208.708C630.626 211.924 633.144 214.868 632.447 215.566C631.827 216.185 626.674 214.016 620.882 211.052C615.09 208.088 608.659 204.33 605.482 201.773C603.777 200.455 601.956 199.099 600.407 198.014C598.857 196.93 597.578 196.116 596.959 195.883C596.339 195.573 596.532 195.418 597.365 195.399C598.198 195.38 599.67 195.496 601.608 195.728C603.545 196.038 606.063 196.697 608.581 197.511C611.1 198.324 613.618 199.293 615.555 200.223ZM164.591 207.662C168.775 209.676 171.565 211.304 173.947 213.396C176.33 215.488 178.306 218.045 180.863 221.92C183.807 226.336 185.318 228.739 186.093 231.644C186.868 234.55 186.907 237.96 186.907 244.391C186.907 249.506 186.752 253.109 186.306 255.956C185.861 258.804 185.125 260.896 183.962 262.989C181.948 266.476 179.042 270.35 176.156 273.585C173.269 276.82 170.402 279.416 168.465 280.346C167.613 280.733 166.412 281.315 165.153 281.954C163.894 282.593 162.576 283.291 161.492 283.91C158.315 285.77 152.232 286.545 145.936 286.313C139.641 286.08 133.132 284.84 129.103 282.671C120.967 278.254 115.117 273.217 111.3 267.115C107.484 261.013 105.702 253.845 105.702 245.166C105.702 237.882 106.554 232.148 108.569 227.228C110.584 222.307 113.761 218.2 118.41 214.171C125.616 207.894 133.054 204.213 140.745 203.129C148.435 202.044 156.377 203.555 164.591 207.662ZM341.257 210.296C346.604 213.008 351.137 216.65 354.74 221.009C358.343 225.368 361.016 230.443 362.643 236.023C364.813 243.694 364.929 251.172 363.031 258.165C361.132 265.158 357.219 271.667 351.33 277.401C346.836 281.818 342.303 284.957 337.383 286.971C332.463 288.986 327.155 289.877 321.111 289.8C314.215 289.645 306.854 287.088 300.384 282.981C293.914 278.874 288.335 273.217 285.003 266.863C282.678 262.524 281.477 255.007 281.419 247.588C281.361 240.168 282.446 232.845 284.693 228.894C287.87 223.314 292.635 218.123 297.904 214.132C303.173 210.141 308.946 207.352 314.137 206.577C318.012 206.034 323.358 206.228 328.453 206.926C333.547 207.623 338.39 208.824 341.257 210.296ZM583.631 220.99C586.033 221.842 588.59 222.888 590.798 223.896C593.007 224.903 594.866 225.872 595.874 226.569C597.501 227.809 598.276 228.429 597.811 228.622C597.346 228.816 595.641 228.584 592.309 228.119C588.9 227.576 584.445 226.065 580.629 224.36C576.812 222.656 573.635 220.757 572.783 219.44C572.163 218.433 572.434 218.006 574.081 218.239C575.728 218.471 578.749 219.362 583.631 220.99ZM640.195 244.701C643.45 247.878 645.697 250.59 646.665 252.334C647.634 254.077 647.324 254.852 645.464 254.155C644.225 253.69 643.256 253.148 641.687 251.714C640.118 250.28 637.948 247.956 634.306 243.926C631.517 240.827 631.401 239.471 632.776 239.664C634.151 239.858 637.018 241.602 640.195 244.701ZM236.497 257.564C237.582 258.572 239.325 260.625 241.282 263.124C243.238 265.623 245.408 268.568 247.345 271.357C251.762 277.479 254.048 281.663 254.299 284.802C254.551 287.94 252.769 290.032 249.05 291.969C246.88 293.132 244.633 293.17 242.309 292.105C239.984 291.039 237.582 288.87 235.102 285.615C233.94 284.065 232.7 282.671 231.654 281.663C230.608 280.656 229.756 280.036 229.369 280.036C228.981 280.036 228.361 280.656 227.703 281.644C227.044 282.632 226.347 283.988 225.804 285.46C224.255 288.947 222.395 291.272 220.206 292.434C218.017 293.597 215.499 293.597 212.632 292.434C208.835 290.884 207.014 288.482 207.247 284.453C207.479 280.423 209.765 274.767 214.181 266.708C215.576 264.228 217.01 261.71 218.211 259.676C219.412 257.642 220.38 256.092 220.845 255.55C222.162 253.922 225.029 253.38 228.09 253.767C231.151 254.155 234.405 255.472 236.497 257.564ZM190.936 387.745C192.873 388.753 195.043 389.992 196.999 391.193C198.956 392.395 200.699 393.557 201.784 394.409L203.721 396.037L205.658 397.664L201.629 396.656L197.6 395.649C193.57 394.564 189.812 393.014 186.539 391.116C183.265 389.218 180.475 386.97 178.383 384.491C177.376 383.328 176.95 382.708 177.202 382.515C177.453 382.321 178.383 382.553 180.088 383.096C181.173 383.406 182.916 384.103 184.873 384.956C186.829 385.808 188.999 386.815 190.936 387.745ZM228.904 386.97C230.841 388.288 231.887 389.063 232.119 389.508C232.352 389.954 231.771 390.07 230.453 390.07C229.601 390.07 228.323 389.721 226.928 389.159C225.533 388.598 224.022 387.823 222.705 386.97C220.768 385.653 219.722 384.878 219.489 384.433C219.257 383.987 219.838 383.871 221.155 383.871C222.007 383.871 223.325 384.219 224.739 384.781C226.153 385.343 227.664 386.118 228.904 386.97ZM260.828 401.228C262.532 401.693 264.043 402.274 265.128 402.836C266.213 403.398 266.871 403.94 266.871 404.328C266.871 405.18 266.058 405.568 264.469 405.49C262.881 405.413 260.518 404.87 257.418 403.863C251.684 401.926 249.592 400.376 250.406 399.756C251.219 399.136 254.939 399.446 260.828 401.228ZM234.793 414.556C238.744 416.571 241.34 418.198 242.483 419.322C243.626 420.445 243.316 421.065 241.456 421.065C239.209 421.065 235.296 419.787 231.519 418.043C227.741 416.3 224.1 414.091 222.395 412.232L220.69 410.449L218.986 408.667L221.078 409.132L223.17 409.597C224.332 409.907 226.192 410.604 228.284 411.495C230.376 412.387 232.7 413.471 234.793 414.556ZM197.135 417.656C197.135 418.043 197.716 418.663 198.646 419.38C199.576 420.097 200.854 420.91 202.249 421.685C209.222 425.327 212.864 427.574 213.252 428.485C213.639 429.395 210.772 428.969 204.728 427.264C201.784 426.412 198.181 423.7 195.876 421.201C193.57 418.702 192.563 416.416 194.81 416.416C195.43 416.416 196.011 416.571 196.437 416.803C196.864 417.036 197.135 417.346 197.135 417.656ZM283.143 429.589C285.468 430.596 286.63 431.1 286.708 431.371C286.785 431.643 285.778 431.681 283.763 431.759C282.678 431.836 281.361 431.604 280.102 431.197C278.843 430.79 277.642 430.209 276.79 429.589C274.852 428.117 274.814 427.381 276.073 427.381C277.332 427.381 279.889 428.117 283.143 429.589ZM252.304 445.242C253.699 446.404 254.396 446.985 254.183 447.16C253.97 447.334 252.847 447.102 250.6 446.637C247.733 446.017 245.524 445.048 244.575 444.234C243.626 443.421 243.936 442.762 246.105 442.762C246.958 442.762 248.081 443.033 249.205 443.479C250.328 443.924 251.452 444.544 252.304 445.242ZM569.219 507.388C570.226 508.55 570.691 509.131 570.517 509.209C570.342 509.286 569.529 508.86 567.979 508.008C566.119 507.078 564.996 506.264 564.628 505.683C564.26 505.102 564.647 504.753 565.809 504.753C566.197 504.753 566.778 505.024 567.398 505.489C568.018 505.954 568.676 506.613 569.219 507.388ZM615.555 510.177C612.456 511.417 608.62 512.192 605.85 512.386C603.08 512.579 601.375 512.192 602.537 511.107C603.467 510.177 605.056 509.441 607.245 508.937C609.434 508.434 612.223 508.163 615.555 508.163L618.267 508.163L620.979 508.163L618.267 509.17L615.555 510.177ZM648.099 522.575C647.014 523.195 645.619 523.738 644.244 524.145C642.869 524.551 641.513 524.823 640.505 524.9C638.646 524.9 637.716 524.9 637.619 524.61C637.522 524.319 638.258 523.738 639.73 522.575C640.505 521.956 641.784 521.413 643.178 521.026C644.573 520.638 646.084 520.406 647.324 520.406L649.648 520.406L651.973 520.406L650.036 521.491L648.099 522.575ZM612.301 530.479C615.323 530.867 617.531 531.254 618.829 531.642C620.127 532.029 620.514 532.416 619.894 532.804C618.422 533.811 615.013 534.16 611.196 533.966C607.38 533.773 603.157 533.036 600.058 531.874C597.578 530.944 596.3 530.402 596.106 530.092C595.912 529.782 596.804 529.704 598.663 529.704C599.748 529.627 601.84 529.704 604.32 529.859C606.799 530.014 609.666 530.247 612.301 530.479ZM580.997 532.029C580.764 532.262 580.299 532.416 579.757 532.455C579.214 532.494 578.595 532.416 578.052 532.184C577.432 531.952 577.239 531.719 577.413 531.545C577.587 531.37 578.13 531.254 578.982 531.254C579.834 531.177 580.493 531.254 580.861 531.409C581.229 531.564 581.306 531.797 580.997 532.029ZM651.198 544.117C649.803 545.357 645.503 546.674 641.861 547.372C638.219 548.069 635.236 548.147 636.476 546.907C637.251 546.054 639.885 544.931 642.849 543.982C645.813 543.032 649.106 542.258 651.198 542.103C652.205 542.025 652.709 542.064 652.709 542.354C652.709 542.645 652.205 543.187 651.198 544.117Z" fill="#e1f2ff" fill-rule="nonzero" opacity="1" stroke="none"/>
<path d="M138.866 226.569C131.427 229.823 127.398 235.868 127.398 243.771C127.398 260.664 142.275 269.498 156.842 261.284C163.816 257.409 166.761 248.886 164.746 239.587C162.886 231.683 161.956 230.443 154.673 227.189C147.234 223.779 145.375 223.779 138.866 226.569Z" fill="#e1f2ff" fill-rule="nonzero" opacity="1" stroke="none"/>
<path d="M312.898 230.288C306.079 234.783 303.444 239.587 303.444 247.801C303.444 257.254 307.474 262.989 316.152 266.088C327 269.808 337.383 264.383 341.257 252.915C346.526 236.797 326.845 220.99 312.898 230.288Z" fill="#e1f2ff" fill-rule="nonzero" opacity="1" stroke="none"/>
</g>
</svg>
